<svg width="900" height="700" viewBox="0 0 900 700" fill="none" xmlns="http://www.w3.org/2000/svg" role="img" aria-labelledby="title desc">
    <title id="title">Layer callouts diagram</title>
    <desc id="desc">Wall section with numbered callouts for major construction layers.</desc>
    <rect width="900" height="700" rx="28" fill="#F8FAFC"/>
    <rect x="54" y="54" width="792" height="592" rx="24" fill="#FFFBEB"/>
    <rect x="120" y="120" width="80" height="460" rx="8" fill="#FFFFFF" stroke="#D4D4D8"/>
    <rect x="214" y="120" width="180" height="460" rx="8" fill="#ECFEFF" stroke="#67E8F9"/>
    <rect x="406" y="120" width="160" height="460" rx="8" fill="#FEF3C7" stroke="#F59E0B"/>
    <rect x="580" y="120" width="200" height="460" rx="8" fill="#FFFFFF" stroke="#D4D4D8"/>
    <circle cx="730" cy="180" r="22" fill="#0EA5E9"/>
    <text x="722" y="188" fill="white" font-family="'Instrument Sans', sans-serif" font-size="18">1</text>
    <circle cx="730" cy="260" r="22" fill="#14B8A6"/>
    <text x="722" y="268" fill="white" font-family="'Instrument Sans', sans-serif" font-size="18">2</text>
    <circle cx="730" cy="340" r="22" fill="#F59E0B"/>
    <text x="722" y="348" fill="white" font-family="'Instrument Sans', sans-serif" font-size="18">3</text>
    <path d="M708 180H590" stroke="#0EA5E9" stroke-width="3"/>
    <path d="M708 260H420" stroke="#14B8A6" stroke-width="3"/>
    <path d="M708 340H232" stroke="#F59E0B" stroke-width="3"/>
    <text x="600" y="188" fill="#1F2937" font-family="'Instrument Sans', sans-serif" font-size="18">Interior finish</text>
    <text x="600" y="268" fill="#1F2937" font-family="'Instrument Sans', sans-serif" font-size="18">Structure + cavity</text>
    <text x="600" y="348" fill="#1F2937" font-family="'Instrument Sans', sans-serif" font-size="18">Insulation layer</text>
</svg>
