<svg width="900" height="700" viewBox="0 0 900 700" fill="none" xmlns="http://www.w3.org/2000/svg" role="img" aria-labelledby="title desc">
    <title id="title">Stud elevation layout</title>
    <desc id="desc">Elevation style illustration showing repeating wood studs.</desc>
    <rect width="900" height="700" rx="28" fill="#F8FAFC"/>
    <rect x="48" y="48" width="804" height="604" rx="22" fill="#ECFEFF"/>
    <rect x="92" y="96" width="716" height="20" rx="8" fill="#A16207" fill-opacity="0.55"/>
    <rect x="92" y="584" width="716" height="20" rx="8" fill="#A16207" fill-opacity="0.55"/>
    <rect x="120" y="116" width="34" height="468" rx="6" fill="#B45309" fill-opacity="0.7"/>
    <rect x="195" y="116" width="34" height="468" rx="6" fill="#B45309" fill-opacity="0.7"/>
    <rect x="270" y="116" width="34" height="468" rx="6" fill="#B45309" fill-opacity="0.7"/>
    <rect x="345" y="116" width="34" height="468" rx="6" fill="#B45309" fill-opacity="0.7"/>
    <rect x="420" y="116" width="34" height="468" rx="6" fill="#B45309" fill-opacity="0.7"/>
    <rect x="495" y="116" width="34" height="468" rx="6" fill="#B45309" fill-opacity="0.7"/>
    <rect x="570" y="116" width="34" height="468" rx="6" fill="#B45309" fill-opacity="0.7"/>
    <rect x="645" y="116" width="34" height="468" rx="6" fill="#B45309" fill-opacity="0.7"/>
    <rect x="720" y="116" width="34" height="468" rx="6" fill="#B45309" fill-opacity="0.7"/>
    <path d="M102 198H798" stroke="#0E7490" stroke-opacity="0.25" stroke-width="2" stroke-dasharray="8 8"/>
    <path d="M102 332H798" stroke="#0E7490" stroke-opacity="0.25" stroke-width="2" stroke-dasharray="8 8"/>
    <path d="M102 466H798" stroke="#0E7490" stroke-opacity="0.25" stroke-width="2" stroke-dasharray="8 8"/>
</svg>
